<mxfile host="app.diagrams.net" modified="2023-10-04T12:55:00.744Z" agent="Mozilla/5.0 (Windows NT 10.0; Win64; x64) AppleWebKit/537.36 (KHTML, like Gecko) Chrome/117.0.0.0 Safari/537.36" etag="OlNwrvQLeqBG2wYOaB01" version="22.0.2" type="github" pages="2">
  <diagram id="pc1u-pK77mza1r95Gp3K" name="Взаиморасчёты с клиентами">
    <mxGraphModel dx="5166" dy="889" grid="1" gridSize="10" guides="1" tooltips="1" connect="1" arrows="1" fold="1" page="1" pageScale="1" pageWidth="1169" pageHeight="1654" math="0" shadow="0">
      <root>
        <mxCell id="0" />
        <mxCell id="1" parent="0" />
        <mxCell id="FATSExFQxBo790ZL_QAv-39" style="edgeStyle=orthogonalEdgeStyle;rounded=0;orthogonalLoop=1;jettySize=auto;html=1;" edge="1" parent="1" source="FATSExFQxBo790ZL_QAv-41" target="FATSExFQxBo790ZL_QAv-38">
          <mxGeometry relative="1" as="geometry" />
        </mxCell>
        <mxCell id="FATSExFQxBo790ZL_QAv-1" value="" style="shape=ellipse;html=1;fillColor=strokeColor;fontSize=18;fontColor=#ffffff;" vertex="1" parent="1">
          <mxGeometry x="-3320" y="170" width="60" height="60" as="geometry" />
        </mxCell>
        <mxCell id="FATSExFQxBo790ZL_QAv-12" style="edgeStyle=orthogonalEdgeStyle;rounded=0;orthogonalLoop=1;jettySize=auto;html=1;" edge="1" parent="1" source="FATSExFQxBo790ZL_QAv-2">
          <mxGeometry relative="1" as="geometry">
            <mxPoint x="-1890" y="349.96000000000004" as="targetPoint" />
          </mxGeometry>
        </mxCell>
        <mxCell id="FATSExFQxBo790ZL_QAv-16" style="edgeStyle=orthogonalEdgeStyle;rounded=0;orthogonalLoop=1;jettySize=auto;html=1;" edge="1" parent="1" source="FATSExFQxBo790ZL_QAv-2" target="FATSExFQxBo790ZL_QAv-15">
          <mxGeometry relative="1" as="geometry" />
        </mxCell>
        <mxCell id="FATSExFQxBo790ZL_QAv-26" style="edgeStyle=orthogonalEdgeStyle;rounded=0;orthogonalLoop=1;jettySize=auto;html=1;" edge="1" parent="1" source="FATSExFQxBo790ZL_QAv-2" target="FATSExFQxBo790ZL_QAv-25">
          <mxGeometry relative="1" as="geometry" />
        </mxCell>
        <mxCell id="FATSExFQxBo790ZL_QAv-27" value="Провека платежей клиентов" style="edgeLabel;html=1;align=center;verticalAlign=middle;resizable=0;points=[];" vertex="1" connectable="0" parent="FATSExFQxBo790ZL_QAv-26">
          <mxGeometry x="0.0173" y="1" relative="1" as="geometry">
            <mxPoint as="offset" />
          </mxGeometry>
        </mxCell>
        <mxCell id="FATSExFQxBo790ZL_QAv-2" value="Менеджер отдела продаж" style="rounded=0;whiteSpace=wrap;html=1;" vertex="1" parent="1">
          <mxGeometry x="-2040" y="319.96000000000004" width="120" height="60" as="geometry" />
        </mxCell>
        <mxCell id="FATSExFQxBo790ZL_QAv-11" style="edgeStyle=orthogonalEdgeStyle;rounded=0;orthogonalLoop=1;jettySize=auto;html=1;" edge="1" parent="1" source="FATSExFQxBo790ZL_QAv-4">
          <mxGeometry relative="1" as="geometry">
            <mxPoint x="-1900" y="379.96000000000004" as="targetPoint" />
          </mxGeometry>
        </mxCell>
        <mxCell id="FATSExFQxBo790ZL_QAv-4" value="Выставление счёта клиенту" style="rounded=0;whiteSpace=wrap;html=1;" vertex="1" parent="1">
          <mxGeometry x="-1880" y="389.96000000000004" width="120" height="60" as="geometry" />
        </mxCell>
        <mxCell id="FATSExFQxBo790ZL_QAv-10" style="edgeStyle=orthogonalEdgeStyle;rounded=0;orthogonalLoop=1;jettySize=auto;html=1;" edge="1" parent="1">
          <mxGeometry relative="1" as="geometry">
            <mxPoint x="-1900" y="319.96000000000004" as="targetPoint" />
            <mxPoint x="-1880" y="290" as="sourcePoint" />
          </mxGeometry>
        </mxCell>
        <mxCell id="FATSExFQxBo790ZL_QAv-5" value="Отгрузка товаров" style="rounded=0;whiteSpace=wrap;html=1;" vertex="1" parent="1">
          <mxGeometry x="-1880" y="250" width="120" height="60" as="geometry" />
        </mxCell>
        <mxCell id="FATSExFQxBo790ZL_QAv-6" value="Реестр счёт" style="ellipse;whiteSpace=wrap;html=1;" vertex="1" parent="1">
          <mxGeometry x="-1705" y="399.96000000000004" width="90" height="40" as="geometry" />
        </mxCell>
        <mxCell id="FATSExFQxBo790ZL_QAv-8" value="" style="endArrow=none;dashed=1;html=1;rounded=0;entryX=0;entryY=0.5;entryDx=0;entryDy=0;exitX=1;exitY=0.5;exitDx=0;exitDy=0;" edge="1" parent="1" source="FATSExFQxBo790ZL_QAv-4" target="FATSExFQxBo790ZL_QAv-6">
          <mxGeometry width="50" height="50" relative="1" as="geometry">
            <mxPoint x="-1810" y="519.96" as="sourcePoint" />
            <mxPoint x="-1760" y="469.96000000000004" as="targetPoint" />
          </mxGeometry>
        </mxCell>
        <mxCell id="FATSExFQxBo790ZL_QAv-9" value="" style="endArrow=none;html=1;rounded=0;strokeWidth=8;" edge="1" parent="1">
          <mxGeometry width="50" height="50" relative="1" as="geometry">
            <mxPoint x="-1900" y="389.96000000000004" as="sourcePoint" />
            <mxPoint x="-1900" y="299.96000000000004" as="targetPoint" />
          </mxGeometry>
        </mxCell>
        <mxCell id="FATSExFQxBo790ZL_QAv-15" value="Запись журнала(отгрузки и оплаты" style="rounded=0;whiteSpace=wrap;html=1;" vertex="1" parent="1">
          <mxGeometry x="-2240" y="319.96000000000004" width="120" height="60" as="geometry" />
        </mxCell>
        <mxCell id="FATSExFQxBo790ZL_QAv-23" style="edgeStyle=orthogonalEdgeStyle;rounded=0;orthogonalLoop=1;jettySize=auto;html=1;entryX=0.5;entryY=1;entryDx=0;entryDy=0;" edge="1" parent="1" source="FATSExFQxBo790ZL_QAv-17" target="FATSExFQxBo790ZL_QAv-6">
          <mxGeometry relative="1" as="geometry">
            <Array as="points">
              <mxPoint x="-1480" y="459.96000000000004" />
              <mxPoint x="-1660" y="459.96000000000004" />
            </Array>
          </mxGeometry>
        </mxCell>
        <mxCell id="FATSExFQxBo790ZL_QAv-17" value="Бугалтер" style="rounded=0;whiteSpace=wrap;html=1;" vertex="1" parent="1">
          <mxGeometry x="-1540" y="319.96000000000004" width="120" height="60" as="geometry" />
        </mxCell>
        <mxCell id="FATSExFQxBo790ZL_QAv-22" style="edgeStyle=orthogonalEdgeStyle;rounded=0;orthogonalLoop=1;jettySize=auto;html=1;" edge="1" parent="1" source="FATSExFQxBo790ZL_QAv-20" target="FATSExFQxBo790ZL_QAv-17">
          <mxGeometry relative="1" as="geometry" />
        </mxCell>
        <mxCell id="FATSExFQxBo790ZL_QAv-20" value="Счёт банка" style="rounded=0;whiteSpace=wrap;html=1;" vertex="1" parent="1">
          <mxGeometry x="-1720" y="319.96000000000004" width="120" height="60" as="geometry" />
        </mxCell>
        <mxCell id="FATSExFQxBo790ZL_QAv-21" value="" style="endArrow=none;dashed=1;html=1;dashPattern=1 3;strokeWidth=2;rounded=0;entryX=0.5;entryY=1;entryDx=0;entryDy=0;exitX=0.5;exitY=0;exitDx=0;exitDy=0;" edge="1" parent="1" source="FATSExFQxBo790ZL_QAv-6" target="FATSExFQxBo790ZL_QAv-20">
          <mxGeometry width="50" height="50" relative="1" as="geometry">
            <mxPoint x="-1670" y="499.96000000000004" as="sourcePoint" />
            <mxPoint x="-1620" y="449.96000000000004" as="targetPoint" />
          </mxGeometry>
        </mxCell>
        <mxCell id="FATSExFQxBo790ZL_QAv-28" style="edgeStyle=orthogonalEdgeStyle;rounded=0;orthogonalLoop=1;jettySize=auto;html=1;" edge="1" parent="1" source="FATSExFQxBo790ZL_QAv-25">
          <mxGeometry relative="1" as="geometry">
            <mxPoint x="-2180" y="520" as="targetPoint" />
          </mxGeometry>
        </mxCell>
        <mxCell id="FATSExFQxBo790ZL_QAv-30" value="Поступили" style="edgeLabel;html=1;align=center;verticalAlign=middle;resizable=0;points=[];" vertex="1" connectable="0" parent="FATSExFQxBo790ZL_QAv-28">
          <mxGeometry x="0.1081" y="1" relative="1" as="geometry">
            <mxPoint as="offset" />
          </mxGeometry>
        </mxCell>
        <mxCell id="FATSExFQxBo790ZL_QAv-29" style="edgeStyle=orthogonalEdgeStyle;rounded=0;orthogonalLoop=1;jettySize=auto;html=1;entryX=0.5;entryY=0;entryDx=0;entryDy=0;" edge="1" parent="1" source="FATSExFQxBo790ZL_QAv-25" target="FATSExFQxBo790ZL_QAv-32">
          <mxGeometry relative="1" as="geometry">
            <mxPoint x="-1760" y="520" as="targetPoint" />
          </mxGeometry>
        </mxCell>
        <mxCell id="FATSExFQxBo790ZL_QAv-31" value="Не поступили" style="edgeLabel;html=1;align=center;verticalAlign=middle;resizable=0;points=[];" vertex="1" connectable="0" parent="FATSExFQxBo790ZL_QAv-29">
          <mxGeometry x="0.0024" y="-2" relative="1" as="geometry">
            <mxPoint x="-1" as="offset" />
          </mxGeometry>
        </mxCell>
        <mxCell id="FATSExFQxBo790ZL_QAv-25" value="" style="rhombus;whiteSpace=wrap;html=1;" vertex="1" parent="1">
          <mxGeometry x="-2005" y="490" width="50" height="60" as="geometry" />
        </mxCell>
        <mxCell id="FATSExFQxBo790ZL_QAv-32" value="Блокирока отгрузки товара" style="rounded=0;whiteSpace=wrap;html=1;" vertex="1" parent="1">
          <mxGeometry x="-1825" y="560" width="120" height="60" as="geometry" />
        </mxCell>
        <mxCell id="FATSExFQxBo790ZL_QAv-33" value="" style="endArrow=none;html=1;rounded=0;" edge="1" parent="1">
          <mxGeometry width="50" height="50" relative="1" as="geometry">
            <mxPoint x="-3030" y="1432.5396437872023" as="sourcePoint" />
            <mxPoint x="-3030" as="targetPoint" />
          </mxGeometry>
        </mxCell>
        <mxCell id="FATSExFQxBo790ZL_QAv-34" value="" style="endArrow=none;html=1;rounded=0;" edge="1" parent="1">
          <mxGeometry width="50" height="50" relative="1" as="geometry">
            <mxPoint x="-3490" y="120" as="sourcePoint" />
            <mxPoint x="-2470" y="120" as="targetPoint" />
          </mxGeometry>
        </mxCell>
        <mxCell id="FATSExFQxBo790ZL_QAv-35" value="&lt;font style=&quot;font-size: 32px;&quot;&gt;Менеджер отдела продаж&lt;/font&gt;" style="text;html=1;align=center;verticalAlign=middle;resizable=0;points=[];autosize=1;strokeColor=none;fillColor=none;" vertex="1" parent="1">
          <mxGeometry x="-3460" y="28" width="410" height="50" as="geometry" />
        </mxCell>
        <mxCell id="FATSExFQxBo790ZL_QAv-38" value="&amp;nbsp;Отгрузка товаров" style="rounded=0;whiteSpace=wrap;html=1;" vertex="1" parent="1">
          <mxGeometry x="-3460" y="400" width="120" height="60" as="geometry" />
        </mxCell>
        <mxCell id="FATSExFQxBo790ZL_QAv-42" value="" style="edgeStyle=orthogonalEdgeStyle;rounded=0;orthogonalLoop=1;jettySize=auto;html=1;" edge="1" parent="1" source="FATSExFQxBo790ZL_QAv-1" target="FATSExFQxBo790ZL_QAv-41">
          <mxGeometry relative="1" as="geometry">
            <mxPoint x="-3290" y="230" as="sourcePoint" />
            <mxPoint x="-3290" y="600" as="targetPoint" />
          </mxGeometry>
        </mxCell>
        <mxCell id="FATSExFQxBo790ZL_QAv-43" value="Договара и Приказ по кредитной линии" style="edgeLabel;html=1;align=center;verticalAlign=middle;resizable=0;points=[];" vertex="1" connectable="0" parent="FATSExFQxBo790ZL_QAv-42">
          <mxGeometry x="-0.0828" relative="1" as="geometry">
            <mxPoint as="offset" />
          </mxGeometry>
        </mxCell>
        <mxCell id="FATSExFQxBo790ZL_QAv-46" style="edgeStyle=orthogonalEdgeStyle;rounded=0;orthogonalLoop=1;jettySize=auto;html=1;entryX=0.5;entryY=0;entryDx=0;entryDy=0;" edge="1" parent="1" source="FATSExFQxBo790ZL_QAv-41" target="FATSExFQxBo790ZL_QAv-45">
          <mxGeometry relative="1" as="geometry" />
        </mxCell>
        <mxCell id="FATSExFQxBo790ZL_QAv-41" value="" style="rhombus;whiteSpace=wrap;html=1;" vertex="1" parent="1">
          <mxGeometry x="-3315" y="320" width="50" height="50" as="geometry" />
        </mxCell>
        <mxCell id="FATSExFQxBo790ZL_QAv-49" style="edgeStyle=orthogonalEdgeStyle;rounded=0;orthogonalLoop=1;jettySize=auto;html=1;" edge="1" parent="1" source="FATSExFQxBo790ZL_QAv-45" target="FATSExFQxBo790ZL_QAv-48">
          <mxGeometry relative="1" as="geometry" />
        </mxCell>
        <mxCell id="FATSExFQxBo790ZL_QAv-45" value="&amp;nbsp;Выставление счёта" style="rounded=0;whiteSpace=wrap;html=1;" vertex="1" parent="1">
          <mxGeometry x="-3240" y="400" width="120" height="60" as="geometry" />
        </mxCell>
        <mxCell id="FATSExFQxBo790ZL_QAv-47" value="&amp;nbsp;Реестр счёта" style="ellipse;whiteSpace=wrap;html=1;" vertex="1" parent="1">
          <mxGeometry x="-3150" y="590" width="75" height="50" as="geometry" />
        </mxCell>
        <mxCell id="FATSExFQxBo790ZL_QAv-48" value="&amp;nbsp;Банк" style="rounded=0;whiteSpace=wrap;html=1;" vertex="1" parent="1">
          <mxGeometry x="-3240" y="520" width="120" height="60" as="geometry" />
        </mxCell>
        <mxCell id="FATSExFQxBo790ZL_QAv-50" value="" style="endArrow=none;dashed=1;html=1;rounded=0;entryX=0.5;entryY=1;entryDx=0;entryDy=0;exitX=0;exitY=0.5;exitDx=0;exitDy=0;" edge="1" parent="1" source="FATSExFQxBo790ZL_QAv-47" target="FATSExFQxBo790ZL_QAv-48">
          <mxGeometry width="50" height="50" relative="1" as="geometry">
            <mxPoint x="-3170" y="700" as="sourcePoint" />
            <mxPoint x="-3120" y="650" as="targetPoint" />
          </mxGeometry>
        </mxCell>
        <mxCell id="FATSExFQxBo790ZL_QAv-51" value="&lt;font style=&quot;font-size: 32px;&quot;&gt;Бухгалтер&lt;/font&gt;" style="text;html=1;align=center;verticalAlign=middle;resizable=0;points=[];autosize=1;strokeColor=none;fillColor=none;" vertex="1" parent="1">
          <mxGeometry x="-2700" y="28" width="170" height="50" as="geometry" />
        </mxCell>
        <mxCell id="FATSExFQxBo790ZL_QAv-52" value="" style="endArrow=none;html=1;rounded=0;" edge="1" parent="1">
          <mxGeometry width="50" height="50" relative="1" as="geometry">
            <mxPoint x="-2720" y="1440" as="sourcePoint" />
            <mxPoint x="-2720" as="targetPoint" />
          </mxGeometry>
        </mxCell>
        <mxCell id="FATSExFQxBo790ZL_QAv-75" style="edgeStyle=orthogonalEdgeStyle;rounded=0;orthogonalLoop=1;jettySize=auto;html=1;" edge="1" parent="1" source="FATSExFQxBo790ZL_QAv-53" target="FATSExFQxBo790ZL_QAv-74">
          <mxGeometry relative="1" as="geometry" />
        </mxCell>
        <mxCell id="wDt0JElzGA15nare-3fP-1" value="Взаиморасчёт с клиентом" style="edgeLabel;html=1;align=center;verticalAlign=middle;resizable=0;points=[];" vertex="1" connectable="0" parent="FATSExFQxBo790ZL_QAv-75">
          <mxGeometry x="-0.002" y="-1" relative="1" as="geometry">
            <mxPoint as="offset" />
          </mxGeometry>
        </mxCell>
        <mxCell id="FATSExFQxBo790ZL_QAv-53" value="&amp;nbsp;Отметка об оплате" style="rounded=0;whiteSpace=wrap;html=1;" vertex="1" parent="1">
          <mxGeometry x="-2650" y="520" width="120" height="60" as="geometry" />
        </mxCell>
        <mxCell id="FATSExFQxBo790ZL_QAv-56" style="edgeStyle=orthogonalEdgeStyle;rounded=0;orthogonalLoop=1;jettySize=auto;html=1;entryX=0.987;entryY=0.703;entryDx=0;entryDy=0;entryPerimeter=0;" edge="1" parent="1" source="FATSExFQxBo790ZL_QAv-53" target="FATSExFQxBo790ZL_QAv-47">
          <mxGeometry relative="1" as="geometry">
            <Array as="points">
              <mxPoint x="-2590" y="600" />
              <mxPoint x="-2982" y="600" />
              <mxPoint x="-2982" y="625" />
            </Array>
          </mxGeometry>
        </mxCell>
        <mxCell id="FATSExFQxBo790ZL_QAv-61" value="" style="endArrow=classic;startArrow=classic;html=1;rounded=0;entryX=0;entryY=0.5;entryDx=0;entryDy=0;exitX=1;exitY=0.5;exitDx=0;exitDy=0;" edge="1" parent="1" source="FATSExFQxBo790ZL_QAv-48" target="FATSExFQxBo790ZL_QAv-53">
          <mxGeometry width="50" height="50" relative="1" as="geometry">
            <mxPoint x="-3000" y="600" as="sourcePoint" />
            <mxPoint x="-2950" y="550" as="targetPoint" />
          </mxGeometry>
        </mxCell>
        <mxCell id="FATSExFQxBo790ZL_QAv-62" value="Выписки расёчтных сётов банка" style="edgeLabel;html=1;align=center;verticalAlign=middle;resizable=0;points=[];" vertex="1" connectable="0" parent="FATSExFQxBo790ZL_QAv-61">
          <mxGeometry x="0.0515" relative="1" as="geometry">
            <mxPoint as="offset" />
          </mxGeometry>
        </mxCell>
        <mxCell id="FATSExFQxBo790ZL_QAv-68" style="edgeStyle=orthogonalEdgeStyle;rounded=0;orthogonalLoop=1;jettySize=auto;html=1;" edge="1" parent="1" source="FATSExFQxBo790ZL_QAv-65">
          <mxGeometry relative="1" as="geometry">
            <mxPoint x="-3370" y="990" as="targetPoint" />
          </mxGeometry>
        </mxCell>
        <mxCell id="FATSExFQxBo790ZL_QAv-70" value="Прошёл&amp;nbsp;" style="edgeLabel;html=1;align=center;verticalAlign=middle;resizable=0;points=[];" vertex="1" connectable="0" parent="FATSExFQxBo790ZL_QAv-68">
          <mxGeometry x="0.0856" y="-3" relative="1" as="geometry">
            <mxPoint as="offset" />
          </mxGeometry>
        </mxCell>
        <mxCell id="FATSExFQxBo790ZL_QAv-69" style="edgeStyle=orthogonalEdgeStyle;rounded=0;orthogonalLoop=1;jettySize=auto;html=1;entryX=0.5;entryY=0;entryDx=0;entryDy=0;" edge="1" parent="1" source="FATSExFQxBo790ZL_QAv-65" target="FATSExFQxBo790ZL_QAv-73">
          <mxGeometry relative="1" as="geometry">
            <mxPoint x="-3110" y="685" as="targetPoint" />
          </mxGeometry>
        </mxCell>
        <mxCell id="FATSExFQxBo790ZL_QAv-71" value="Не прошёл" style="edgeLabel;html=1;align=center;verticalAlign=middle;resizable=0;points=[];" vertex="1" connectable="0" parent="FATSExFQxBo790ZL_QAv-69">
          <mxGeometry x="0.0798" y="3" relative="1" as="geometry">
            <mxPoint as="offset" />
          </mxGeometry>
        </mxCell>
        <mxCell id="FATSExFQxBo790ZL_QAv-65" value="" style="rhombus;whiteSpace=wrap;html=1;" vertex="1" parent="1">
          <mxGeometry x="-3315" y="660" width="50" height="50" as="geometry" />
        </mxCell>
        <mxCell id="FATSExFQxBo790ZL_QAv-66" value="" style="endArrow=none;dashed=1;html=1;rounded=0;entryX=0;entryY=1;entryDx=0;entryDy=0;" edge="1" parent="1" target="FATSExFQxBo790ZL_QAv-47">
          <mxGeometry width="50" height="50" relative="1" as="geometry">
            <mxPoint x="-3290" y="660" as="sourcePoint" />
            <mxPoint x="-3240" y="610" as="targetPoint" />
          </mxGeometry>
        </mxCell>
        <mxCell id="FATSExFQxBo790ZL_QAv-67" value="Проверка платежа" style="edgeLabel;html=1;align=center;verticalAlign=middle;resizable=0;points=[];" vertex="1" connectable="0" parent="FATSExFQxBo790ZL_QAv-66">
          <mxGeometry x="0.0347" relative="1" as="geometry">
            <mxPoint as="offset" />
          </mxGeometry>
        </mxCell>
        <mxCell id="FATSExFQxBo790ZL_QAv-72" value="" style="ellipse;html=1;shape=endState;fillColor=strokeColor;" vertex="1" parent="1">
          <mxGeometry x="-3310" y="1090" width="40" height="40" as="geometry" />
        </mxCell>
        <mxCell id="FATSExFQxBo790ZL_QAv-73" value="&amp;nbsp;Блокировка отгрузки товара" style="rounded=0;whiteSpace=wrap;html=1;" vertex="1" parent="1">
          <mxGeometry x="-3172" y="767" width="120" height="60" as="geometry" />
        </mxCell>
        <mxCell id="FATSExFQxBo790ZL_QAv-76" style="edgeStyle=orthogonalEdgeStyle;rounded=0;orthogonalLoop=1;jettySize=auto;html=1;" edge="1" parent="1" source="FATSExFQxBo790ZL_QAv-74">
          <mxGeometry relative="1" as="geometry">
            <mxPoint x="-3230" y="990" as="targetPoint" />
            <Array as="points">
              <mxPoint x="-2590" y="990" />
            </Array>
          </mxGeometry>
        </mxCell>
        <mxCell id="FATSExFQxBo790ZL_QAv-74" value="Сальдо" style="rounded=0;whiteSpace=wrap;html=1;" vertex="1" parent="1">
          <mxGeometry x="-2650" y="730" width="120" height="60" as="geometry" />
        </mxCell>
        <mxCell id="FATSExFQxBo790ZL_QAv-77" value="" style="endArrow=none;html=1;rounded=0;" edge="1" parent="1">
          <mxGeometry width="50" height="50" relative="1" as="geometry">
            <mxPoint x="-2480" y="1450" as="sourcePoint" />
            <mxPoint x="-2480" as="targetPoint" />
          </mxGeometry>
        </mxCell>
        <mxCell id="FATSExFQxBo790ZL_QAv-79" style="edgeStyle=orthogonalEdgeStyle;rounded=0;orthogonalLoop=1;jettySize=auto;html=1;entryX=0.5;entryY=0;entryDx=0;entryDy=0;" edge="1" parent="1" source="FATSExFQxBo790ZL_QAv-78" target="FATSExFQxBo790ZL_QAv-2">
          <mxGeometry relative="1" as="geometry" />
        </mxCell>
        <mxCell id="FATSExFQxBo790ZL_QAv-78" value="" style="shape=ellipse;html=1;fillColor=strokeColor;fontSize=18;fontColor=#ffffff;" vertex="1" parent="1">
          <mxGeometry x="-2000" y="20" width="40" height="40" as="geometry" />
        </mxCell>
        <mxCell id="mufqdy38AuzaTVb-zQxH-1" value="" style="endArrow=none;html=1;rounded=0;strokeWidth=5;" edge="1" parent="1">
          <mxGeometry width="50" height="50" relative="1" as="geometry">
            <mxPoint x="-3390" y="990" as="sourcePoint" />
            <mxPoint x="-3230" y="990" as="targetPoint" />
          </mxGeometry>
        </mxCell>
        <mxCell id="mufqdy38AuzaTVb-zQxH-2" value="" style="endArrow=classic;html=1;rounded=0;entryX=0.5;entryY=0;entryDx=0;entryDy=0;" edge="1" parent="1" target="FATSExFQxBo790ZL_QAv-72">
          <mxGeometry width="50" height="50" relative="1" as="geometry">
            <mxPoint x="-3290" y="990" as="sourcePoint" />
            <mxPoint x="-3190" y="1110" as="targetPoint" />
          </mxGeometry>
        </mxCell>
        <mxCell id="oWeoDMt-pRUL3PrUjWIQ-1" value="Диаграмма и номер на диаграмме" style="rounded=0;whiteSpace=wrap;html=1;" vertex="1" parent="1">
          <mxGeometry x="-2360" y="1217" width="120" height="60" as="geometry" />
        </mxCell>
        <mxCell id="oWeoDMt-pRUL3PrUjWIQ-2" value="Составляемый документ(исходящий документ)&amp;nbsp;" style="rounded=0;whiteSpace=wrap;html=1;" vertex="1" parent="1">
          <mxGeometry x="-1720" y="1217" width="120" height="60" as="geometry" />
        </mxCell>
        <mxCell id="oWeoDMt-pRUL3PrUjWIQ-3" value="Операция" style="rounded=0;whiteSpace=wrap;html=1;" vertex="1" parent="1">
          <mxGeometry x="-2240" y="1217" width="120" height="60" as="geometry" />
        </mxCell>
        <mxCell id="oWeoDMt-pRUL3PrUjWIQ-4" value="Кто составляет(исполнитель)&amp;nbsp;" style="rounded=0;whiteSpace=wrap;html=1;" vertex="1" parent="1">
          <mxGeometry x="-2120" y="1217" width="160" height="60" as="geometry" />
        </mxCell>
        <mxCell id="oWeoDMt-pRUL3PrUjWIQ-5" value="Как часто" style="rounded=0;whiteSpace=wrap;html=1;" vertex="1" parent="1">
          <mxGeometry x="-1960" y="1217" width="120" height="60" as="geometry" />
        </mxCell>
        <mxCell id="oWeoDMt-pRUL3PrUjWIQ-6" value="Документы-основания(входящие документы)" style="rounded=0;whiteSpace=wrap;html=1;" vertex="1" parent="1">
          <mxGeometry x="-1840" y="1217" width="120" height="60" as="geometry" />
        </mxCell>
        <mxCell id="oWeoDMt-pRUL3PrUjWIQ-7" value="Реестр в котором регистрируется документ" style="rounded=0;whiteSpace=wrap;html=1;" vertex="1" parent="1">
          <mxGeometry x="-360" y="1237" width="120" height="60" as="geometry" />
        </mxCell>
        <mxCell id="oWeoDMt-pRUL3PrUjWIQ-8" value="Проводка&lt;br&gt;(дебет, кредит,&lt;br&gt;сумма, аналитик)" style="rounded=0;whiteSpace=wrap;html=1;" vertex="1" parent="1">
          <mxGeometry x="-1600" y="1217" width="140" height="60" as="geometry" />
        </mxCell>
        <mxCell id="oWeoDMt-pRUL3PrUjWIQ-9" value="1" style="rounded=0;whiteSpace=wrap;html=1;" vertex="1" parent="1">
          <mxGeometry x="-2360" y="1277" width="120" height="40" as="geometry" />
        </mxCell>
        <mxCell id="oWeoDMt-pRUL3PrUjWIQ-10" value="6" style="rounded=0;whiteSpace=wrap;html=1;" vertex="1" parent="1">
          <mxGeometry x="-1720" y="1277" width="120" height="40" as="geometry" />
        </mxCell>
        <mxCell id="oWeoDMt-pRUL3PrUjWIQ-11" value="2" style="rounded=0;whiteSpace=wrap;html=1;" vertex="1" parent="1">
          <mxGeometry x="-2240" y="1277" width="120" height="40" as="geometry" />
        </mxCell>
        <mxCell id="oWeoDMt-pRUL3PrUjWIQ-12" value="3" style="rounded=0;whiteSpace=wrap;html=1;" vertex="1" parent="1">
          <mxGeometry x="-2120" y="1277" width="160" height="40" as="geometry" />
        </mxCell>
        <mxCell id="oWeoDMt-pRUL3PrUjWIQ-13" value="4" style="rounded=0;whiteSpace=wrap;html=1;" vertex="1" parent="1">
          <mxGeometry x="-1960" y="1277" width="120" height="40" as="geometry" />
        </mxCell>
        <mxCell id="oWeoDMt-pRUL3PrUjWIQ-14" value="5" style="rounded=0;whiteSpace=wrap;html=1;" vertex="1" parent="1">
          <mxGeometry x="-1840" y="1277" width="120" height="40" as="geometry" />
        </mxCell>
        <mxCell id="oWeoDMt-pRUL3PrUjWIQ-15" value="7" style="rounded=0;whiteSpace=wrap;html=1;" vertex="1" parent="1">
          <mxGeometry x="-360" y="1297" width="120" height="40" as="geometry" />
        </mxCell>
        <mxCell id="oWeoDMt-pRUL3PrUjWIQ-16" value="7" style="rounded=0;whiteSpace=wrap;html=1;" vertex="1" parent="1">
          <mxGeometry x="-1600" y="1277" width="140" height="40" as="geometry" />
        </mxCell>
        <mxCell id="oWeoDMt-pRUL3PrUjWIQ-17" value="1ПродКл" style="rounded=0;whiteSpace=wrap;html=1;" vertex="1" parent="1">
          <mxGeometry x="-2360" y="1317" width="120" height="40" as="geometry" />
        </mxCell>
        <mxCell id="oWeoDMt-pRUL3PrUjWIQ-18" value="Накладная" style="rounded=0;whiteSpace=wrap;html=1;" vertex="1" parent="1">
          <mxGeometry x="-1720" y="1317" width="120" height="40" as="geometry" />
        </mxCell>
        <mxCell id="oWeoDMt-pRUL3PrUjWIQ-19" value="Отгрузка товаров" style="rounded=0;whiteSpace=wrap;html=1;" vertex="1" parent="1">
          <mxGeometry x="-2240" y="1317" width="120" height="40" as="geometry" />
        </mxCell>
        <mxCell id="oWeoDMt-pRUL3PrUjWIQ-20" value="Менеджер отдела продаж" style="rounded=0;whiteSpace=wrap;html=1;" vertex="1" parent="1">
          <mxGeometry x="-2120" y="1317" width="160" height="40" as="geometry" />
        </mxCell>
        <mxCell id="oWeoDMt-pRUL3PrUjWIQ-21" value="На протяжении 10 дней" style="rounded=0;whiteSpace=wrap;html=1;" vertex="1" parent="1">
          <mxGeometry x="-1960" y="1317" width="120" height="40" as="geometry" />
        </mxCell>
        <mxCell id="oWeoDMt-pRUL3PrUjWIQ-22" value="Заявка на номенклатурные странци" style="rounded=0;whiteSpace=wrap;html=1;" vertex="1" parent="1">
          <mxGeometry x="-1840" y="1317" width="120" height="40" as="geometry" />
        </mxCell>
        <mxCell id="oWeoDMt-pRUL3PrUjWIQ-23" value="" style="rounded=0;whiteSpace=wrap;html=1;" vertex="1" parent="1">
          <mxGeometry x="-360" y="1337" width="120" height="40" as="geometry" />
        </mxCell>
        <mxCell id="oWeoDMt-pRUL3PrUjWIQ-24" value="" style="rounded=0;whiteSpace=wrap;html=1;" vertex="1" parent="1">
          <mxGeometry x="-1600" y="1317" width="140" height="40" as="geometry" />
        </mxCell>
        <mxCell id="oWeoDMt-pRUL3PrUjWIQ-25" value="2ПродКл" style="rounded=0;whiteSpace=wrap;html=1;" vertex="1" parent="1">
          <mxGeometry x="-2360" y="1357" width="120" height="40" as="geometry" />
        </mxCell>
        <mxCell id="oWeoDMt-pRUL3PrUjWIQ-26" value="Счёт" style="rounded=0;whiteSpace=wrap;html=1;" vertex="1" parent="1">
          <mxGeometry x="-1720" y="1357" width="120" height="40" as="geometry" />
        </mxCell>
        <mxCell id="oWeoDMt-pRUL3PrUjWIQ-27" value="Выставление счёта" style="rounded=0;whiteSpace=wrap;html=1;" vertex="1" parent="1">
          <mxGeometry x="-2240" y="1357" width="120" height="40" as="geometry" />
        </mxCell>
        <mxCell id="oWeoDMt-pRUL3PrUjWIQ-28" value="Менеджер отдела продаж" style="rounded=0;whiteSpace=wrap;html=1;" vertex="1" parent="1">
          <mxGeometry x="-2120" y="1357" width="160" height="40" as="geometry" />
        </mxCell>
        <mxCell id="oWeoDMt-pRUL3PrUjWIQ-29" value="По мере необходимости" style="rounded=0;whiteSpace=wrap;html=1;" vertex="1" parent="1">
          <mxGeometry x="-1960" y="1357" width="120" height="40" as="geometry" />
        </mxCell>
        <mxCell id="oWeoDMt-pRUL3PrUjWIQ-30" value="Заказ номенклатурной страници&lt;br&gt;" style="rounded=0;whiteSpace=wrap;html=1;" vertex="1" parent="1">
          <mxGeometry x="-1840" y="1357" width="120" height="40" as="geometry" />
        </mxCell>
        <mxCell id="oWeoDMt-pRUL3PrUjWIQ-31" value="Реестр счёт" style="rounded=0;whiteSpace=wrap;html=1;" vertex="1" parent="1">
          <mxGeometry x="-360" y="1377" width="120" height="40" as="geometry" />
        </mxCell>
        <mxCell id="oWeoDMt-pRUL3PrUjWIQ-32" value="" style="rounded=0;whiteSpace=wrap;html=1;" vertex="1" parent="1">
          <mxGeometry x="-1600" y="1357" width="140" height="40" as="geometry" />
        </mxCell>
        <mxCell id="oWeoDMt-pRUL3PrUjWIQ-33" value="3ПродКл" style="rounded=0;whiteSpace=wrap;html=1;" vertex="1" parent="1">
          <mxGeometry x="-2360" y="1397" width="120" height="40" as="geometry" />
        </mxCell>
        <mxCell id="oWeoDMt-pRUL3PrUjWIQ-34" value="Отметка об оплате" style="rounded=0;whiteSpace=wrap;html=1;" vertex="1" parent="1">
          <mxGeometry x="-2240" y="1397" width="120" height="40" as="geometry" />
        </mxCell>
        <mxCell id="oWeoDMt-pRUL3PrUjWIQ-35" value="Бахгалтер" style="rounded=0;whiteSpace=wrap;html=1;" vertex="1" parent="1">
          <mxGeometry x="-2120" y="1397" width="160" height="40" as="geometry" />
        </mxCell>
        <mxCell id="oWeoDMt-pRUL3PrUjWIQ-36" value="Ежедневно" style="rounded=0;whiteSpace=wrap;html=1;" vertex="1" parent="1">
          <mxGeometry x="-1960" y="1397" width="120" height="40" as="geometry" />
        </mxCell>
        <mxCell id="oWeoDMt-pRUL3PrUjWIQ-37" value="Заказ номенклатурной страниции" style="rounded=0;whiteSpace=wrap;html=1;" vertex="1" parent="1">
          <mxGeometry x="-1840" y="1397" width="120" height="40" as="geometry" />
        </mxCell>
        <mxCell id="oWeoDMt-pRUL3PrUjWIQ-38" value="Реестр счёт" style="rounded=0;whiteSpace=wrap;html=1;" vertex="1" parent="1">
          <mxGeometry x="-360" y="1417" width="120" height="40" as="geometry" />
        </mxCell>
        <mxCell id="oWeoDMt-pRUL3PrUjWIQ-39" value="" style="rounded=0;whiteSpace=wrap;html=1;" vertex="1" parent="1">
          <mxGeometry x="-1600" y="1397" width="140" height="40" as="geometry" />
        </mxCell>
        <mxCell id="oWeoDMt-pRUL3PrUjWIQ-40" value="4ПродКл" style="rounded=0;whiteSpace=wrap;html=1;" vertex="1" parent="1">
          <mxGeometry x="-2360" y="1437" width="120" height="40" as="geometry" />
        </mxCell>
        <mxCell id="oWeoDMt-pRUL3PrUjWIQ-41" value="Платёж" style="rounded=0;whiteSpace=wrap;html=1;" vertex="1" parent="1">
          <mxGeometry x="-1720" y="1437" width="120" height="40" as="geometry" />
        </mxCell>
        <mxCell id="oWeoDMt-pRUL3PrUjWIQ-42" value="Проверка платежа" style="rounded=0;whiteSpace=wrap;html=1;" vertex="1" parent="1">
          <mxGeometry x="-2240" y="1437" width="120" height="40" as="geometry" />
        </mxCell>
        <mxCell id="oWeoDMt-pRUL3PrUjWIQ-43" value="Менеджер отдела продаж" style="rounded=0;whiteSpace=wrap;html=1;" vertex="1" parent="1">
          <mxGeometry x="-2120" y="1437" width="160" height="40" as="geometry" />
        </mxCell>
        <mxCell id="oWeoDMt-pRUL3PrUjWIQ-44" value="Ежедневно" style="rounded=0;whiteSpace=wrap;html=1;" vertex="1" parent="1">
          <mxGeometry x="-1960" y="1437" width="120" height="40" as="geometry" />
        </mxCell>
        <mxCell id="oWeoDMt-pRUL3PrUjWIQ-45" value="Заказ номенклатурной страници" style="rounded=0;whiteSpace=wrap;html=1;" vertex="1" parent="1">
          <mxGeometry x="-1840" y="1437" width="120" height="40" as="geometry" />
        </mxCell>
        <mxCell id="oWeoDMt-pRUL3PrUjWIQ-46" value="Реестр счёт" style="rounded=0;whiteSpace=wrap;html=1;" vertex="1" parent="1">
          <mxGeometry x="-360" y="1457" width="120" height="40" as="geometry" />
        </mxCell>
        <mxCell id="oWeoDMt-pRUL3PrUjWIQ-47" value="" style="rounded=0;whiteSpace=wrap;html=1;" vertex="1" parent="1">
          <mxGeometry x="-1600" y="1437" width="140" height="40" as="geometry" />
        </mxCell>
        <mxCell id="oWeoDMt-pRUL3PrUjWIQ-48" value="5ПродКл" style="rounded=0;whiteSpace=wrap;html=1;" vertex="1" parent="1">
          <mxGeometry x="-2360" y="1477" width="120" height="40" as="geometry" />
        </mxCell>
        <mxCell id="oWeoDMt-pRUL3PrUjWIQ-49" value="Не прошёл платёж" style="rounded=0;whiteSpace=wrap;html=1;" vertex="1" parent="1">
          <mxGeometry x="-1720" y="1477" width="120" height="40" as="geometry" />
        </mxCell>
        <mxCell id="oWeoDMt-pRUL3PrUjWIQ-50" value="Блокировка" style="rounded=0;whiteSpace=wrap;html=1;" vertex="1" parent="1">
          <mxGeometry x="-2240" y="1477" width="120" height="40" as="geometry" />
        </mxCell>
        <mxCell id="oWeoDMt-pRUL3PrUjWIQ-51" value="Менеджер отдела продаж" style="rounded=0;whiteSpace=wrap;html=1;" vertex="1" parent="1">
          <mxGeometry x="-2120" y="1477" width="160" height="40" as="geometry" />
        </mxCell>
        <mxCell id="oWeoDMt-pRUL3PrUjWIQ-52" value="Ежедневно" style="rounded=0;whiteSpace=wrap;html=1;" vertex="1" parent="1">
          <mxGeometry x="-1960" y="1477" width="120" height="40" as="geometry" />
        </mxCell>
        <mxCell id="oWeoDMt-pRUL3PrUjWIQ-53" value="" style="rounded=0;whiteSpace=wrap;html=1;" vertex="1" parent="1">
          <mxGeometry x="-1840" y="1477" width="120" height="40" as="geometry" />
        </mxCell>
        <mxCell id="oWeoDMt-pRUL3PrUjWIQ-54" value="" style="rounded=0;whiteSpace=wrap;html=1;" vertex="1" parent="1">
          <mxGeometry x="-360" y="1497" width="120" height="40" as="geometry" />
        </mxCell>
        <mxCell id="oWeoDMt-pRUL3PrUjWIQ-55" value="" style="rounded=0;whiteSpace=wrap;html=1;" vertex="1" parent="1">
          <mxGeometry x="-1600" y="1477" width="140" height="40" as="geometry" />
        </mxCell>
        <mxCell id="oWeoDMt-pRUL3PrUjWIQ-56" value="6ПродКЛ" style="rounded=0;whiteSpace=wrap;html=1;" vertex="1" parent="1">
          <mxGeometry x="-2360" y="1517" width="120" height="40" as="geometry" />
        </mxCell>
        <mxCell id="oWeoDMt-pRUL3PrUjWIQ-57" value="Прошёл платёж" style="rounded=0;whiteSpace=wrap;html=1;" vertex="1" parent="1">
          <mxGeometry x="-1720" y="1517" width="120" height="40" as="geometry" />
        </mxCell>
        <mxCell id="oWeoDMt-pRUL3PrUjWIQ-58" value="Отправка товара" style="rounded=0;whiteSpace=wrap;html=1;" vertex="1" parent="1">
          <mxGeometry x="-2240" y="1517" width="120" height="40" as="geometry" />
        </mxCell>
        <mxCell id="oWeoDMt-pRUL3PrUjWIQ-59" value="Менеджер отдела продаж" style="rounded=0;whiteSpace=wrap;html=1;" vertex="1" parent="1">
          <mxGeometry x="-2120" y="1517" width="160" height="40" as="geometry" />
        </mxCell>
        <mxCell id="oWeoDMt-pRUL3PrUjWIQ-60" value="Ежедневно" style="rounded=0;whiteSpace=wrap;html=1;" vertex="1" parent="1">
          <mxGeometry x="-1960" y="1517" width="120" height="40" as="geometry" />
        </mxCell>
        <mxCell id="oWeoDMt-pRUL3PrUjWIQ-61" value="" style="rounded=0;whiteSpace=wrap;html=1;" vertex="1" parent="1">
          <mxGeometry x="-1840" y="1517" width="120" height="40" as="geometry" />
        </mxCell>
        <mxCell id="oWeoDMt-pRUL3PrUjWIQ-62" value="" style="rounded=0;whiteSpace=wrap;html=1;" vertex="1" parent="1">
          <mxGeometry x="-1600" y="1517" width="140" height="40" as="geometry" />
        </mxCell>
        <mxCell id="oWeoDMt-pRUL3PrUjWIQ-63" value="7ПродКл" style="rounded=0;whiteSpace=wrap;html=1;" vertex="1" parent="1">
          <mxGeometry x="-2360" y="1557" width="120" height="40" as="geometry" />
        </mxCell>
        <mxCell id="oWeoDMt-pRUL3PrUjWIQ-64" value="Взаиморасчёт" style="rounded=0;whiteSpace=wrap;html=1;" vertex="1" parent="1">
          <mxGeometry x="-1720" y="1557" width="120" height="40" as="geometry" />
        </mxCell>
        <mxCell id="oWeoDMt-pRUL3PrUjWIQ-65" value="Сальдо" style="rounded=0;whiteSpace=wrap;html=1;" vertex="1" parent="1">
          <mxGeometry x="-2240" y="1557" width="120" height="40" as="geometry" />
        </mxCell>
        <mxCell id="oWeoDMt-pRUL3PrUjWIQ-66" value="Бухгалтер" style="rounded=0;whiteSpace=wrap;html=1;" vertex="1" parent="1">
          <mxGeometry x="-2120" y="1557" width="160" height="40" as="geometry" />
        </mxCell>
        <mxCell id="oWeoDMt-pRUL3PrUjWIQ-67" value="Ежедневно" style="rounded=0;whiteSpace=wrap;html=1;" vertex="1" parent="1">
          <mxGeometry x="-1960" y="1557" width="120" height="40" as="geometry" />
        </mxCell>
        <mxCell id="oWeoDMt-pRUL3PrUjWIQ-68" value="Заказ номенклатурной страници" style="rounded=0;whiteSpace=wrap;html=1;" vertex="1" parent="1">
          <mxGeometry x="-1840" y="1557" width="120" height="40" as="geometry" />
        </mxCell>
        <mxCell id="oWeoDMt-pRUL3PrUjWIQ-69" value="" style="rounded=0;whiteSpace=wrap;html=1;" vertex="1" parent="1">
          <mxGeometry x="-360" y="1577" width="120" height="40" as="geometry" />
        </mxCell>
        <mxCell id="oWeoDMt-pRUL3PrUjWIQ-70" value="" style="rounded=0;whiteSpace=wrap;html=1;" vertex="1" parent="1">
          <mxGeometry x="-1600" y="1557" width="140" height="40" as="geometry" />
        </mxCell>
        <mxCell id="oWeoDMt-pRUL3PrUjWIQ-71" value="&lt;font style=&quot;font-size: 21px;&quot;&gt;Взаиморасчёты с клиентами&amp;nbsp; (описание документов)&lt;/font&gt;" style="text;html=1;align=center;verticalAlign=middle;resizable=0;points=[];autosize=1;strokeColor=none;fillColor=none;" vertex="1" parent="1">
          <mxGeometry x="-2360" y="1170" width="540" height="40" as="geometry" />
        </mxCell>
        <mxCell id="oWeoDMt-pRUL3PrUjWIQ-72" value="Выписки&amp;nbsp; расчётных счётов" style="rounded=0;whiteSpace=wrap;html=1;" vertex="1" parent="1">
          <mxGeometry x="-1720" y="1397" width="120" height="40" as="geometry" />
        </mxCell>
        <mxCell id="oWeoDMt-pRUL3PrUjWIQ-73" value="" style="rounded=0;whiteSpace=wrap;html=1;fontStyle=1" vertex="1" parent="1">
          <mxGeometry x="-360" y="1537" width="120" height="40" as="geometry" />
        </mxCell>
        <mxCell id="kdvtopzBgkJSN-JVRugG-1" value="Диаграмма и номер на диаграмме" style="rounded=0;whiteSpace=wrap;html=1;" vertex="1" parent="1">
          <mxGeometry x="-1120" y="1237" width="120" height="60" as="geometry" />
        </mxCell>
        <mxCell id="kdvtopzBgkJSN-JVRugG-2" value="Составляемый документ(исходящий документ)&amp;nbsp;" style="rounded=0;whiteSpace=wrap;html=1;" vertex="1" parent="1">
          <mxGeometry x="-1000" y="1237" width="120" height="60" as="geometry" />
        </mxCell>
        <mxCell id="kdvtopzBgkJSN-JVRugG-3" value="Операция" style="rounded=0;whiteSpace=wrap;html=1;" vertex="1" parent="1">
          <mxGeometry x="-880" y="1237" width="120" height="60" as="geometry" />
        </mxCell>
        <mxCell id="kdvtopzBgkJSN-JVRugG-4" value="Кто составляет(исполнитель)&amp;nbsp;" style="rounded=0;whiteSpace=wrap;html=1;" vertex="1" parent="1">
          <mxGeometry x="-760" y="1237" width="160" height="60" as="geometry" />
        </mxCell>
        <mxCell id="kdvtopzBgkJSN-JVRugG-5" value="Как часто" style="rounded=0;whiteSpace=wrap;html=1;" vertex="1" parent="1">
          <mxGeometry x="-600" y="1237" width="120" height="60" as="geometry" />
        </mxCell>
        <mxCell id="kdvtopzBgkJSN-JVRugG-6" value="Документы-основания(входящие документы)" style="rounded=0;whiteSpace=wrap;html=1;" vertex="1" parent="1">
          <mxGeometry x="-480" y="1237" width="120" height="60" as="geometry" />
        </mxCell>
        <mxCell id="kdvtopzBgkJSN-JVRugG-7" value="Коментарий" style="rounded=0;whiteSpace=wrap;html=1;" vertex="1" parent="1">
          <mxGeometry x="-240" y="1237" width="140" height="60" as="geometry" />
        </mxCell>
        <mxCell id="kdvtopzBgkJSN-JVRugG-8" value="1" style="rounded=0;whiteSpace=wrap;html=1;" vertex="1" parent="1">
          <mxGeometry x="-1120" y="1297" width="120" height="40" as="geometry" />
        </mxCell>
        <mxCell id="kdvtopzBgkJSN-JVRugG-9" value="2" style="rounded=0;whiteSpace=wrap;html=1;" vertex="1" parent="1">
          <mxGeometry x="-1000" y="1297" width="120" height="40" as="geometry" />
        </mxCell>
        <mxCell id="kdvtopzBgkJSN-JVRugG-10" value="3" style="rounded=0;whiteSpace=wrap;html=1;" vertex="1" parent="1">
          <mxGeometry x="-880" y="1297" width="120" height="40" as="geometry" />
        </mxCell>
        <mxCell id="kdvtopzBgkJSN-JVRugG-11" value="4" style="rounded=0;whiteSpace=wrap;html=1;" vertex="1" parent="1">
          <mxGeometry x="-760" y="1297" width="160" height="40" as="geometry" />
        </mxCell>
        <mxCell id="kdvtopzBgkJSN-JVRugG-12" value="5" style="rounded=0;whiteSpace=wrap;html=1;" vertex="1" parent="1">
          <mxGeometry x="-600" y="1297" width="120" height="40" as="geometry" />
        </mxCell>
        <mxCell id="kdvtopzBgkJSN-JVRugG-13" value="6" style="rounded=0;whiteSpace=wrap;html=1;" vertex="1" parent="1">
          <mxGeometry x="-480" y="1297" width="120" height="40" as="geometry" />
        </mxCell>
        <mxCell id="kdvtopzBgkJSN-JVRugG-14" value="8" style="rounded=0;whiteSpace=wrap;html=1;" vertex="1" parent="1">
          <mxGeometry x="-240" y="1297" width="140" height="40" as="geometry" />
        </mxCell>
        <mxCell id="kdvtopzBgkJSN-JVRugG-15" value="1ПродКл" style="rounded=0;whiteSpace=wrap;html=1;" vertex="1" parent="1">
          <mxGeometry x="-1120" y="1337" width="120" height="40" as="geometry" />
        </mxCell>
        <mxCell id="kdvtopzBgkJSN-JVRugG-16" value="Накладная" style="rounded=0;whiteSpace=wrap;html=1;" vertex="1" parent="1">
          <mxGeometry x="-1000" y="1337" width="120" height="40" as="geometry" />
        </mxCell>
        <mxCell id="kdvtopzBgkJSN-JVRugG-17" value="Отгрузка товаров" style="rounded=0;whiteSpace=wrap;html=1;" vertex="1" parent="1">
          <mxGeometry x="-880" y="1337" width="120" height="40" as="geometry" />
        </mxCell>
        <mxCell id="kdvtopzBgkJSN-JVRugG-18" value="Менеджер отдела продаж" style="rounded=0;whiteSpace=wrap;html=1;" vertex="1" parent="1">
          <mxGeometry x="-760" y="1337" width="160" height="40" as="geometry" />
        </mxCell>
        <mxCell id="kdvtopzBgkJSN-JVRugG-19" value="На протяжении 10 дней" style="rounded=0;whiteSpace=wrap;html=1;" vertex="1" parent="1">
          <mxGeometry x="-600" y="1337" width="120" height="40" as="geometry" />
        </mxCell>
        <mxCell id="kdvtopzBgkJSN-JVRugG-20" value="Заявка на номенклатурные странци" style="rounded=0;whiteSpace=wrap;html=1;" vertex="1" parent="1">
          <mxGeometry x="-480" y="1337" width="120" height="40" as="geometry" />
        </mxCell>
        <mxCell id="kdvtopzBgkJSN-JVRugG-21" value="" style="rounded=0;whiteSpace=wrap;html=1;" vertex="1" parent="1">
          <mxGeometry x="-240" y="1337" width="140" height="40" as="geometry" />
        </mxCell>
        <mxCell id="kdvtopzBgkJSN-JVRugG-22" value="2ПродКл" style="rounded=0;whiteSpace=wrap;html=1;" vertex="1" parent="1">
          <mxGeometry x="-1120" y="1377" width="120" height="40" as="geometry" />
        </mxCell>
        <mxCell id="kdvtopzBgkJSN-JVRugG-23" value="Счёт" style="rounded=0;whiteSpace=wrap;html=1;" vertex="1" parent="1">
          <mxGeometry x="-1000" y="1377" width="120" height="40" as="geometry" />
        </mxCell>
        <mxCell id="kdvtopzBgkJSN-JVRugG-24" value="Выставление счёта" style="rounded=0;whiteSpace=wrap;html=1;" vertex="1" parent="1">
          <mxGeometry x="-880" y="1377" width="120" height="40" as="geometry" />
        </mxCell>
        <mxCell id="kdvtopzBgkJSN-JVRugG-25" value="Менеджер отдела продаж" style="rounded=0;whiteSpace=wrap;html=1;" vertex="1" parent="1">
          <mxGeometry x="-760" y="1377" width="160" height="40" as="geometry" />
        </mxCell>
        <mxCell id="kdvtopzBgkJSN-JVRugG-26" value="По мере необходимости" style="rounded=0;whiteSpace=wrap;html=1;" vertex="1" parent="1">
          <mxGeometry x="-600" y="1377" width="120" height="40" as="geometry" />
        </mxCell>
        <mxCell id="kdvtopzBgkJSN-JVRugG-27" value="Заказ номенклатурной страници&lt;br&gt;" style="rounded=0;whiteSpace=wrap;html=1;" vertex="1" parent="1">
          <mxGeometry x="-480" y="1377" width="120" height="40" as="geometry" />
        </mxCell>
        <mxCell id="kdvtopzBgkJSN-JVRugG-28" value="" style="rounded=0;whiteSpace=wrap;html=1;" vertex="1" parent="1">
          <mxGeometry x="-240" y="1377" width="140" height="40" as="geometry" />
        </mxCell>
        <mxCell id="kdvtopzBgkJSN-JVRugG-29" value="3ПродКл" style="rounded=0;whiteSpace=wrap;html=1;" vertex="1" parent="1">
          <mxGeometry x="-1120" y="1417" width="120" height="40" as="geometry" />
        </mxCell>
        <mxCell id="kdvtopzBgkJSN-JVRugG-30" value="Отметка об оплате" style="rounded=0;whiteSpace=wrap;html=1;" vertex="1" parent="1">
          <mxGeometry x="-880" y="1417" width="120" height="40" as="geometry" />
        </mxCell>
        <mxCell id="kdvtopzBgkJSN-JVRugG-31" value="Бахгалтер" style="rounded=0;whiteSpace=wrap;html=1;" vertex="1" parent="1">
          <mxGeometry x="-760" y="1417" width="160" height="40" as="geometry" />
        </mxCell>
        <mxCell id="kdvtopzBgkJSN-JVRugG-32" value="Ежедневно" style="rounded=0;whiteSpace=wrap;html=1;" vertex="1" parent="1">
          <mxGeometry x="-600" y="1417" width="120" height="40" as="geometry" />
        </mxCell>
        <mxCell id="kdvtopzBgkJSN-JVRugG-33" value="Заказ номенклатурной страниции" style="rounded=0;whiteSpace=wrap;html=1;" vertex="1" parent="1">
          <mxGeometry x="-480" y="1417" width="120" height="40" as="geometry" />
        </mxCell>
        <mxCell id="kdvtopzBgkJSN-JVRugG-34" value="" style="rounded=0;whiteSpace=wrap;html=1;" vertex="1" parent="1">
          <mxGeometry x="-240" y="1417" width="140" height="40" as="geometry" />
        </mxCell>
        <mxCell id="kdvtopzBgkJSN-JVRugG-35" value="4ПродКл" style="rounded=0;whiteSpace=wrap;html=1;" vertex="1" parent="1">
          <mxGeometry x="-1120" y="1457" width="120" height="40" as="geometry" />
        </mxCell>
        <mxCell id="kdvtopzBgkJSN-JVRugG-36" value="Платёж" style="rounded=0;whiteSpace=wrap;html=1;" vertex="1" parent="1">
          <mxGeometry x="-1000" y="1457" width="120" height="40" as="geometry" />
        </mxCell>
        <mxCell id="kdvtopzBgkJSN-JVRugG-37" value="Проверка платежа" style="rounded=0;whiteSpace=wrap;html=1;" vertex="1" parent="1">
          <mxGeometry x="-880" y="1457" width="120" height="40" as="geometry" />
        </mxCell>
        <mxCell id="kdvtopzBgkJSN-JVRugG-38" value="Менеджер отдела продаж" style="rounded=0;whiteSpace=wrap;html=1;" vertex="1" parent="1">
          <mxGeometry x="-760" y="1457" width="160" height="40" as="geometry" />
        </mxCell>
        <mxCell id="kdvtopzBgkJSN-JVRugG-39" value="Ежедневно" style="rounded=0;whiteSpace=wrap;html=1;" vertex="1" parent="1">
          <mxGeometry x="-600" y="1457" width="120" height="40" as="geometry" />
        </mxCell>
        <mxCell id="kdvtopzBgkJSN-JVRugG-40" value="Заказ номенклатурной страници" style="rounded=0;whiteSpace=wrap;html=1;" vertex="1" parent="1">
          <mxGeometry x="-480" y="1457" width="120" height="40" as="geometry" />
        </mxCell>
        <mxCell id="kdvtopzBgkJSN-JVRugG-41" value="" style="rounded=0;whiteSpace=wrap;html=1;" vertex="1" parent="1">
          <mxGeometry x="-240" y="1457" width="140" height="40" as="geometry" />
        </mxCell>
        <mxCell id="kdvtopzBgkJSN-JVRugG-42" value="5ПродКл" style="rounded=0;whiteSpace=wrap;html=1;" vertex="1" parent="1">
          <mxGeometry x="-1120" y="1497" width="120" height="40" as="geometry" />
        </mxCell>
        <mxCell id="kdvtopzBgkJSN-JVRugG-43" value="Не прошёл платёж" style="rounded=0;whiteSpace=wrap;html=1;" vertex="1" parent="1">
          <mxGeometry x="-1000" y="1497" width="120" height="40" as="geometry" />
        </mxCell>
        <mxCell id="kdvtopzBgkJSN-JVRugG-44" value="Блокировка" style="rounded=0;whiteSpace=wrap;html=1;" vertex="1" parent="1">
          <mxGeometry x="-880" y="1497" width="120" height="40" as="geometry" />
        </mxCell>
        <mxCell id="kdvtopzBgkJSN-JVRugG-45" value="Менеджер отдела продаж" style="rounded=0;whiteSpace=wrap;html=1;" vertex="1" parent="1">
          <mxGeometry x="-760" y="1497" width="160" height="40" as="geometry" />
        </mxCell>
        <mxCell id="kdvtopzBgkJSN-JVRugG-46" value="Ежедневно" style="rounded=0;whiteSpace=wrap;html=1;" vertex="1" parent="1">
          <mxGeometry x="-600" y="1497" width="120" height="40" as="geometry" />
        </mxCell>
        <mxCell id="kdvtopzBgkJSN-JVRugG-47" value="" style="rounded=0;whiteSpace=wrap;html=1;" vertex="1" parent="1">
          <mxGeometry x="-480" y="1497" width="120" height="40" as="geometry" />
        </mxCell>
        <mxCell id="kdvtopzBgkJSN-JVRugG-48" value="" style="rounded=0;whiteSpace=wrap;html=1;" vertex="1" parent="1">
          <mxGeometry x="-240" y="1497" width="140" height="40" as="geometry" />
        </mxCell>
        <mxCell id="kdvtopzBgkJSN-JVRugG-49" value="6ПродКЛ" style="rounded=0;whiteSpace=wrap;html=1;" vertex="1" parent="1">
          <mxGeometry x="-1120" y="1537" width="120" height="40" as="geometry" />
        </mxCell>
        <mxCell id="kdvtopzBgkJSN-JVRugG-50" value="Прошёл платёж" style="rounded=0;whiteSpace=wrap;html=1;" vertex="1" parent="1">
          <mxGeometry x="-1000" y="1537" width="120" height="40" as="geometry" />
        </mxCell>
        <mxCell id="kdvtopzBgkJSN-JVRugG-51" value="Отправка товара" style="rounded=0;whiteSpace=wrap;html=1;" vertex="1" parent="1">
          <mxGeometry x="-880" y="1537" width="120" height="40" as="geometry" />
        </mxCell>
        <mxCell id="kdvtopzBgkJSN-JVRugG-52" value="Менеджер отдела продаж" style="rounded=0;whiteSpace=wrap;html=1;" vertex="1" parent="1">
          <mxGeometry x="-760" y="1537" width="160" height="40" as="geometry" />
        </mxCell>
        <mxCell id="kdvtopzBgkJSN-JVRugG-53" value="Ежедневно" style="rounded=0;whiteSpace=wrap;html=1;" vertex="1" parent="1">
          <mxGeometry x="-600" y="1537" width="120" height="40" as="geometry" />
        </mxCell>
        <mxCell id="kdvtopzBgkJSN-JVRugG-54" value="" style="rounded=0;whiteSpace=wrap;html=1;" vertex="1" parent="1">
          <mxGeometry x="-480" y="1537" width="120" height="40" as="geometry" />
        </mxCell>
        <mxCell id="kdvtopzBgkJSN-JVRugG-55" value="" style="rounded=0;whiteSpace=wrap;html=1;" vertex="1" parent="1">
          <mxGeometry x="-240" y="1537" width="140" height="40" as="geometry" />
        </mxCell>
        <mxCell id="kdvtopzBgkJSN-JVRugG-56" value="7ПродКл" style="rounded=0;whiteSpace=wrap;html=1;" vertex="1" parent="1">
          <mxGeometry x="-1120" y="1577" width="120" height="40" as="geometry" />
        </mxCell>
        <mxCell id="kdvtopzBgkJSN-JVRugG-57" value="Взаиморасчёт" style="rounded=0;whiteSpace=wrap;html=1;" vertex="1" parent="1">
          <mxGeometry x="-1000" y="1577" width="120" height="40" as="geometry" />
        </mxCell>
        <mxCell id="kdvtopzBgkJSN-JVRugG-58" value="Сальдо" style="rounded=0;whiteSpace=wrap;html=1;" vertex="1" parent="1">
          <mxGeometry x="-880" y="1577" width="120" height="40" as="geometry" />
        </mxCell>
        <mxCell id="kdvtopzBgkJSN-JVRugG-59" value="Бухгалтер" style="rounded=0;whiteSpace=wrap;html=1;" vertex="1" parent="1">
          <mxGeometry x="-760" y="1577" width="160" height="40" as="geometry" />
        </mxCell>
        <mxCell id="kdvtopzBgkJSN-JVRugG-60" value="Ежедневно" style="rounded=0;whiteSpace=wrap;html=1;" vertex="1" parent="1">
          <mxGeometry x="-600" y="1577" width="120" height="40" as="geometry" />
        </mxCell>
        <mxCell id="kdvtopzBgkJSN-JVRugG-61" value="Заказ номенклатурной страници" style="rounded=0;whiteSpace=wrap;html=1;" vertex="1" parent="1">
          <mxGeometry x="-480" y="1577" width="120" height="40" as="geometry" />
        </mxCell>
        <mxCell id="kdvtopzBgkJSN-JVRugG-62" value="" style="rounded=0;whiteSpace=wrap;html=1;" vertex="1" parent="1">
          <mxGeometry x="-240" y="1577" width="140" height="40" as="geometry" />
        </mxCell>
        <mxCell id="kdvtopzBgkJSN-JVRugG-63" value="&lt;font style=&quot;font-size: 21px;&quot;&gt;Взаиморасчёты с клиентами&amp;nbsp; (описание операций)&lt;/font&gt;" style="text;html=1;align=center;verticalAlign=middle;resizable=0;points=[];autosize=1;strokeColor=none;fillColor=none;" vertex="1" parent="1">
          <mxGeometry x="-1110" y="1190" width="520" height="40" as="geometry" />
        </mxCell>
        <mxCell id="kdvtopzBgkJSN-JVRugG-64" value="Выписки&amp;nbsp; расчётных счётов" style="rounded=0;whiteSpace=wrap;html=1;" vertex="1" parent="1">
          <mxGeometry x="-1000" y="1417" width="120" height="40" as="geometry" />
        </mxCell>
        <mxCell id="kdvtopzBgkJSN-JVRugG-65" value="Коментарий" style="rounded=0;whiteSpace=wrap;html=1;" vertex="1" parent="1">
          <mxGeometry x="-1460" y="1217" width="140" height="60" as="geometry" />
        </mxCell>
        <mxCell id="kdvtopzBgkJSN-JVRugG-66" value="8" style="rounded=0;whiteSpace=wrap;html=1;" vertex="1" parent="1">
          <mxGeometry x="-1460" y="1277" width="140" height="40" as="geometry" />
        </mxCell>
        <mxCell id="kdvtopzBgkJSN-JVRugG-67" value="" style="rounded=0;whiteSpace=wrap;html=1;" vertex="1" parent="1">
          <mxGeometry x="-1460" y="1317" width="140" height="40" as="geometry" />
        </mxCell>
        <mxCell id="kdvtopzBgkJSN-JVRugG-68" value="" style="rounded=0;whiteSpace=wrap;html=1;" vertex="1" parent="1">
          <mxGeometry x="-1460" y="1357" width="140" height="40" as="geometry" />
        </mxCell>
        <mxCell id="kdvtopzBgkJSN-JVRugG-69" value="" style="rounded=0;whiteSpace=wrap;html=1;" vertex="1" parent="1">
          <mxGeometry x="-1460" y="1397" width="140" height="40" as="geometry" />
        </mxCell>
        <mxCell id="kdvtopzBgkJSN-JVRugG-70" value="" style="rounded=0;whiteSpace=wrap;html=1;" vertex="1" parent="1">
          <mxGeometry x="-1460" y="1437" width="140" height="40" as="geometry" />
        </mxCell>
        <mxCell id="kdvtopzBgkJSN-JVRugG-71" value="" style="rounded=0;whiteSpace=wrap;html=1;" vertex="1" parent="1">
          <mxGeometry x="-1460" y="1477" width="140" height="40" as="geometry" />
        </mxCell>
        <mxCell id="kdvtopzBgkJSN-JVRugG-72" value="" style="rounded=0;whiteSpace=wrap;html=1;" vertex="1" parent="1">
          <mxGeometry x="-1460" y="1517" width="140" height="40" as="geometry" />
        </mxCell>
        <mxCell id="kdvtopzBgkJSN-JVRugG-73" value="" style="rounded=0;whiteSpace=wrap;html=1;" vertex="1" parent="1">
          <mxGeometry x="-1460" y="1557" width="140" height="40" as="geometry" />
        </mxCell>
      </root>
    </mxGraphModel>
  </diagram>
  <diagram id="Sa_T4qMvxIeObtxynspR" name="Страница — 3">
    <mxGraphModel dx="2074" dy="1111" grid="1" gridSize="10" guides="1" tooltips="1" connect="1" arrows="1" fold="1" page="1" pageScale="1" pageWidth="1169" pageHeight="1654" math="0" shadow="0">
      <root>
        <mxCell id="0" />
        <mxCell id="1" parent="0" />
        <mxCell id="VwQ3gkBTnGgv-aRKOowN-2" value="&lt;font style=&quot;font-size: 32px;&quot;&gt;Менеджер отдела закупок&lt;/font&gt;" style="text;html=1;align=center;verticalAlign=middle;resizable=0;points=[];autosize=1;strokeColor=none;fillColor=none;" vertex="1" parent="1">
          <mxGeometry x="30" y="10" width="410" height="50" as="geometry" />
        </mxCell>
        <mxCell id="VwQ3gkBTnGgv-aRKOowN-4" style="edgeStyle=orthogonalEdgeStyle;rounded=0;orthogonalLoop=1;jettySize=auto;html=1;" edge="1" parent="1" source="VwQ3gkBTnGgv-aRKOowN-3">
          <mxGeometry relative="1" as="geometry">
            <mxPoint x="210" y="430" as="targetPoint" />
          </mxGeometry>
        </mxCell>
        <mxCell id="VwQ3gkBTnGgv-aRKOowN-5" value="Счёт на опталу" style="edgeLabel;html=1;align=center;verticalAlign=middle;resizable=0;points=[];" vertex="1" connectable="0" parent="VwQ3gkBTnGgv-aRKOowN-4">
          <mxGeometry x="-0.1522" y="3" relative="1" as="geometry">
            <mxPoint as="offset" />
          </mxGeometry>
        </mxCell>
        <mxCell id="VwQ3gkBTnGgv-aRKOowN-3" value="" style="shape=ellipse;html=1;fillColor=strokeColor;fontSize=18;fontColor=#ffffff;" vertex="1" parent="1">
          <mxGeometry x="190" y="120" width="40" height="40" as="geometry" />
        </mxCell>
        <mxCell id="VwQ3gkBTnGgv-aRKOowN-9" style="edgeStyle=orthogonalEdgeStyle;rounded=0;orthogonalLoop=1;jettySize=auto;html=1;" edge="1" parent="1" source="VwQ3gkBTnGgv-aRKOowN-6" target="VwQ3gkBTnGgv-aRKOowN-8">
          <mxGeometry relative="1" as="geometry" />
        </mxCell>
        <mxCell id="VwQ3gkBTnGgv-aRKOowN-15" style="edgeStyle=orthogonalEdgeStyle;rounded=0;orthogonalLoop=1;jettySize=auto;html=1;" edge="1" parent="1" source="VwQ3gkBTnGgv-aRKOowN-6" target="VwQ3gkBTnGgv-aRKOowN-14">
          <mxGeometry relative="1" as="geometry">
            <mxPoint x="130" y="630" as="targetPoint" />
            <Array as="points">
              <mxPoint x="140" y="460" />
              <mxPoint x="140" y="560" />
              <mxPoint x="131" y="560" />
              <mxPoint x="131" y="620" />
            </Array>
          </mxGeometry>
        </mxCell>
        <mxCell id="VwQ3gkBTnGgv-aRKOowN-6" value="Реестр сёчтов" style="rounded=0;whiteSpace=wrap;html=1;" vertex="1" parent="1">
          <mxGeometry x="150" y="430" width="120" height="60" as="geometry" />
        </mxCell>
        <mxCell id="VwQ3gkBTnGgv-aRKOowN-7" value="&lt;font style=&quot;font-size: 32px;&quot;&gt;Бухгалтер&lt;/font&gt;" style="text;html=1;align=center;verticalAlign=middle;resizable=0;points=[];autosize=1;strokeColor=none;fillColor=none;" vertex="1" parent="1">
          <mxGeometry x="500" y="10" width="170" height="50" as="geometry" />
        </mxCell>
        <mxCell id="VwQ3gkBTnGgv-aRKOowN-11" style="edgeStyle=orthogonalEdgeStyle;rounded=0;orthogonalLoop=1;jettySize=auto;html=1;" edge="1" parent="1" source="VwQ3gkBTnGgv-aRKOowN-8" target="VwQ3gkBTnGgv-aRKOowN-10">
          <mxGeometry relative="1" as="geometry" />
        </mxCell>
        <mxCell id="VwQ3gkBTnGgv-aRKOowN-23" style="edgeStyle=orthogonalEdgeStyle;rounded=0;orthogonalLoop=1;jettySize=auto;html=1;" edge="1" parent="1" source="VwQ3gkBTnGgv-aRKOowN-8">
          <mxGeometry relative="1" as="geometry">
            <mxPoint x="560" y="740" as="targetPoint" />
          </mxGeometry>
        </mxCell>
        <mxCell id="VwQ3gkBTnGgv-aRKOowN-24" value="Сальдо" style="edgeLabel;html=1;align=center;verticalAlign=middle;resizable=0;points=[];" vertex="1" connectable="0" parent="VwQ3gkBTnGgv-aRKOowN-23">
          <mxGeometry x="0.0632" y="1" relative="1" as="geometry">
            <mxPoint as="offset" />
          </mxGeometry>
        </mxCell>
        <mxCell id="VwQ3gkBTnGgv-aRKOowN-8" value="Платёжное поручение" style="rounded=0;whiteSpace=wrap;html=1;" vertex="1" parent="1">
          <mxGeometry x="500" y="430" width="120" height="60" as="geometry" />
        </mxCell>
        <mxCell id="VwQ3gkBTnGgv-aRKOowN-12" style="edgeStyle=orthogonalEdgeStyle;rounded=0;orthogonalLoop=1;jettySize=auto;html=1;entryX=0.5;entryY=1;entryDx=0;entryDy=0;" edge="1" parent="1" source="VwQ3gkBTnGgv-aRKOowN-10" target="VwQ3gkBTnGgv-aRKOowN-6">
          <mxGeometry relative="1" as="geometry">
            <Array as="points">
              <mxPoint x="730" y="510" />
              <mxPoint x="210" y="510" />
            </Array>
          </mxGeometry>
        </mxCell>
        <mxCell id="VwQ3gkBTnGgv-aRKOowN-13" value="Отметка об оплате" style="edgeLabel;html=1;align=center;verticalAlign=middle;resizable=0;points=[];" vertex="1" connectable="0" parent="VwQ3gkBTnGgv-aRKOowN-12">
          <mxGeometry x="0.1012" y="3" relative="1" as="geometry">
            <mxPoint as="offset" />
          </mxGeometry>
        </mxCell>
        <mxCell id="VwQ3gkBTnGgv-aRKOowN-10" value="Банк" style="rounded=0;whiteSpace=wrap;html=1;" vertex="1" parent="1">
          <mxGeometry x="670" y="430" width="120" height="60" as="geometry" />
        </mxCell>
        <mxCell id="VwQ3gkBTnGgv-aRKOowN-22" style="edgeStyle=orthogonalEdgeStyle;rounded=0;orthogonalLoop=1;jettySize=auto;html=1;" edge="1" parent="1" source="VwQ3gkBTnGgv-aRKOowN-14">
          <mxGeometry relative="1" as="geometry">
            <mxPoint x="410" y="730" as="targetPoint" />
          </mxGeometry>
        </mxCell>
        <mxCell id="VwQ3gkBTnGgv-aRKOowN-14" value="Журнал поступления и оплаты" style="rounded=0;whiteSpace=wrap;html=1;" vertex="1" parent="1">
          <mxGeometry x="150" y="590" width="120" height="60" as="geometry" />
        </mxCell>
        <mxCell id="VwQ3gkBTnGgv-aRKOowN-18" value="" style="ellipse;html=1;shape=endState;fillColor=strokeColor;" vertex="1" parent="1">
          <mxGeometry x="470" y="780" width="30" height="30" as="geometry" />
        </mxCell>
        <mxCell id="VwQ3gkBTnGgv-aRKOowN-21" value="" style="endArrow=none;html=1;rounded=0;strokeWidth=6;" edge="1" parent="1">
          <mxGeometry width="50" height="50" relative="1" as="geometry">
            <mxPoint x="410" y="730" as="sourcePoint" />
            <mxPoint x="560" y="730" as="targetPoint" />
            <Array as="points">
              <mxPoint x="490" y="730" />
            </Array>
          </mxGeometry>
        </mxCell>
        <mxCell id="VwQ3gkBTnGgv-aRKOowN-25" value="" style="endArrow=classic;html=1;rounded=0;entryX=0.5;entryY=0;entryDx=0;entryDy=0;" edge="1" parent="1" target="VwQ3gkBTnGgv-aRKOowN-18">
          <mxGeometry width="50" height="50" relative="1" as="geometry">
            <mxPoint x="485" y="730" as="sourcePoint" />
            <mxPoint x="310" y="800" as="targetPoint" />
          </mxGeometry>
        </mxCell>
        <mxCell id="VwQ3gkBTnGgv-aRKOowN-26" value="" style="endArrow=none;html=1;rounded=0;" edge="1" parent="1">
          <mxGeometry width="50" height="50" relative="1" as="geometry">
            <mxPoint x="480" y="710" as="sourcePoint" />
            <mxPoint x="480" as="targetPoint" />
          </mxGeometry>
        </mxCell>
        <mxCell id="VwQ3gkBTnGgv-aRKOowN-27" value="" style="endArrow=none;html=1;rounded=0;" edge="1" parent="1">
          <mxGeometry width="50" height="50" relative="1" as="geometry">
            <mxPoint y="120" as="sourcePoint" />
            <mxPoint x="1150" y="120" as="targetPoint" />
          </mxGeometry>
        </mxCell>
      </root>
    </mxGraphModel>
  </diagram>
</mxfile>
